<?xml version="1.0" encoding="utf-8"?>
<!-- Generator: Adobe Illustrator 26.5.0, SVG Export Plug-In . SVG Version: 6.00 Build 0)  -->
<svg version="1.1" id="sitename-logo" xmlns="http://www.w3.org/2000/svg" xmlns:xlink="http://www.w3.org/1999/xlink" x="0px"
	 y="0px" viewBox="0 0 500 500" style="enable-background:new 0 0 500 500;" xml:space="preserve">
<style type="text/css">
	.st0{fill:#FFFFFF;}
</style>
<path class="st0" d="M259.6,186.4c0-18.3-10.2-38.8-34.8-38.8c-25,0-37.9,20.5-37.9,43.7c0,21.4,9.8,37.9,22.7,53.9
	C240,227.8,259.6,211.8,259.6,186.4z"/>
<path class="st0" d="M176.3,259v-1.3c-15.6-19.6-25-41.4-25-62.8c0-3.3,0.2-6.7,0.7-10c-2.3-0.6-4.6-1.7-7.2-3.2
	c-12.9-7.5-83-42.2-113-1.4c-30,40.8,68.8,214.4,87.8,217.8c4,0.7,9.7,1,16.5,1.5c-12.1-14.7-18.6-33.2-18.6-52.9
	C117.5,305.8,142,277.7,176.3,259z"/>
<path class="st0" d="M426.6,319.2c-29.3-47,8.8-124.6-17.7-200.1c-26.5-75.6-37.4-83.7-136.8-99.4c-89.6-14.1-55.7,15.4-84.7,111.2
	c11-6.3,24.4-10,40.1-10c37.4,0,66.4,25,66.4,63.7c0,31.6-18.3,56.6-65.9,80.2v1.3c25.4,29.4,53.9,62.4,73.1,83.8
	c13.8-20.9,23.2-49.9,29-87.8h35.6c-8,47.2-20.9,84.7-43.2,110.9c16,16.9,31.6,33.9,49.5,53h-46.3c-8.5-8.5-16.5-16.9-28.1-29.4
	c-25.8,24.1-54.8,34.3-87.8,34.3c-0.5,0-0.9,0-1.4,0c3.9,5.3,7.3,11.6,10,18.9c19.7,54.5,184.5,41.5,224.6,0
	C483.1,408.4,455.9,366.2,426.6,319.2z"/>
<path class="st0" d="M278.4,374.4c-17.8-19.6-51.2-56.1-84.7-94.5c-16,10.2-38.8,29.4-38.8,61c0,34.3,25.4,60.6,61.5,60.6
	C242.3,401.6,264.1,390,278.4,374.4z"/>
</svg>
